<?xml version="1.0" encoding="UTF-8" standalone="no"?>
<!-- Generator: Adobe Illustrator 12.0.1, SVG Export Plug-In . SVG Version: 6.00 Build 51448)  -->

<svg
   xmlns:dc="http://purl.org/dc/elements/1.1/"
   xmlns:cc="http://creativecommons.org/ns#"
   xmlns:rdf="http://www.w3.org/1999/02/22-rdf-syntax-ns#"
   xmlns:svg="http://www.w3.org/2000/svg"
   xmlns="http://www.w3.org/2000/svg"
   xmlns:xlink="http://www.w3.org/1999/xlink"
   xmlns:sodipodi="http://sodipodi.sourceforge.net/DTD/sodipodi-0.dtd"
   xmlns:inkscape="http://www.inkscape.org/namespaces/inkscape"
   version="1.1"
   id="Layer_1"
   width="155.77365"
   height="349.99655"
   viewBox="0 0 155.77365 349.99655"
   overflow="visible"
   enable-background="new 0 0 148.226 403.195"
   xml:space="preserve"
   inkscape:version="0.48.3.1 r9886"
   sodipodi:docname="pineapple.svg"
   style="overflow:visible"><metadata
   id="metadata185"><rdf:RDF><cc:Work
       rdf:about=""><dc:format>image/svg+xml</dc:format><dc:type
         rdf:resource="http://purl.org/dc/dcmitype/StillImage" /><dc:title></dc:title></cc:Work></rdf:RDF></metadata><defs
   id="defs183"><linearGradient
   id="linearGradient4367"><stop
     style="stop-color:#78a22f;stop-opacity:1;"
     offset="0"
     id="stop4369" /><stop
     style="stop-color:#428b21;stop-opacity:1;"
     offset="1"
     id="stop4371" /></linearGradient><linearGradient
   y2="0.5"
   x2="1"
   y1="0.5"
   x1="2.2527011e-16"
   id="linearGradient875"
   xlink:href="#linearGradient829" /><radialGradient
   id="radialGradient874"
   xlink:href="#linearGradient855" /><linearGradient
   y2="1.546875"
   x2="0.5147059"
   y1="-0.1484375"
   x1="0.55147058"
   id="linearGradient854"
   xlink:href="#linearGradient855" /><linearGradient
   y2="170.10564"
   x2="348.69641"
   y1="164.59578"
   x1="8.4903402"
   id="linearGradient850"
   xlink:href="#linearGradient829"
   gradientTransform="matrix(0.71139284,0,0,1.4056931,6.0402951,349.12906)"
   gradientUnits="userSpaceOnUse" /><radialGradient
   fy="0.53233832"
   fx="0.47744361"
   r="0.42021352"
   cy="0.53233832"
   cx="0.47744361"
   id="radialGradient832"
   xlink:href="#linearGradient855" /><linearGradient
   id="linearGradient829"><stop
     id="stop830"
     offset="0.0000000"
     style="stop-color:#ffffff;stop-opacity:0.34166667;" /><stop
     id="stop831"
     offset="1.0000000"
     style="stop-color:#ffffff;stop-opacity:0.0000000;" /></linearGradient><linearGradient
   id="linearGradient855"><stop
     id="stop856"
     offset="0"
     style="stop-color:#864806;stop-opacity:1;" /><stop
     id="stop857"
     offset="1"
     style="stop-color:#ea9132;stop-opacity:1;" /></linearGradient>
	
	
	
	
	
	
	
	
	
	
	
	
	
	
	
	
	
	
	
	
	
	
	
	
	
	
	
	
	
	
	
	
	
	
	
	
	
	
	
	
	
	
	
	
	
	
	
	
	
	
	
	
	
	
	
	
	
	
	
	
	
	
	
	
	
	
	
	
	
	
	
	
	
	
	
	
	
	
	
	
	
	
	
	
	
	
	
	
<radialGradient
   inkscape:collect="always"
   xlink:href="#linearGradient855"
   id="radialGradient4297"
   cx="62.859272"
   cy="344.48419"
   fx="62.859272"
   fy="344.48419"
   r="73.463493"
   gradientTransform="matrix(1.0904009,-0.0236166,0.03840326,1.7731151,-16.250297,-312.5442)"
   gradientUnits="userSpaceOnUse" /><linearGradient
   inkscape:collect="always"
   xlink:href="#linearGradient4367"
   id="linearGradient4393"
   gradientUnits="userSpaceOnUse"
   x1="105"
   y1="143.19501"
   x2="85"
   y2="203.19501" /></defs><sodipodi:namedview
   pagecolor="#ffffff"
   bordercolor="#666666"
   borderopacity="1"
   objecttolerance="10"
   gridtolerance="10"
   guidetolerance="10"
   inkscape:pageopacity="0"
   inkscape:pageshadow="2"
   inkscape:window-width="687"
   inkscape:window-height="375"
   id="namedview181"
   showgrid="false"
   inkscape:zoom="0.088388348"
   inkscape:cx="1986.363"
   inkscape:cy="-476.15147"
   inkscape:window-x="0"
   inkscape:window-y="0"
   inkscape:window-maximized="0"
   inkscape:current-layer="Layer_1"
   fit-margin-top="0"
   fit-margin-left="0"
   fit-margin-right="0"
   fit-margin-bottom="0"><inkscape:grid
     type="xygrid"
     id="grid4334"
     empspacing="5"
     visible="true"
     enabled="true"
     snapvisiblegridlinesonly="true"
     originx="3.1769163px"
     originy="-0.0034582363px" /></sodipodi:namedview>
<path
   style="fill:url(#radialGradient4297);fill-opacity:1;fill-rule:nonzero;stroke:none"
   d="m 111.34338,175.63097 -20.928561,-1.28134 -41.216439,1.38812 -8.435489,5.87281 -6.513478,7.04737 -10.250721,20.07432 -9.61005,25.52003 -6.6202571,20.28788 -2.6694585,7.15415 -0.961005,12.06595 3.0965718,24.34546 5.2321388,13.66763 18.259095,27.86915 13.667628,8.75582 31.606388,0 32.140287,0.74745 9.8236,-1.81523 14.62864,-12.70662 11.42528,-17.19132 5.12536,-16.12353 1.92201,-16.65742 -1.28134,-14.09474 -2.98979,-14.94896 -9.61005,-34.70296 -8.75583,-28.50982 -6.94059,-11.42528 -4.80503,-4.48469 z"
   id="path4287"
   inkscape:connector-curvature="0"
   sodipodi:nodetypes="cccccccccccccccccccccccccccc" /><g
   id="g4299"
   transform="translate(3.1769163,-53.195008)"><path
     clip-rule="evenodd"
     d="m 106.269,234.28 c 0.407,2.073 0.392,7.93 3.642,10.318 -2.694,0.469 -2.443,-2.008 -3.642,-3.035 -2.08,4.154 -6.873,8.276 -12.746,6.677 8.239,-0.662 11.406,-6.398 12.746,-13.96 z"
     id="path49"
     inkscape:connector-curvature="0"
     style="fill-rule:evenodd" /><path
     clip-rule="evenodd"
     d="m 58.927,243.385 c 0.225,2.652 -2.643,2.213 -1.821,5.462 1.863,6.724 11.447,2.522 13.959,7.891 -5.008,-2.44 -13.516,-0.887 -15.173,-7.891 -2.065,3.077 -4.945,8.294 -10.318,6.07 8.402,0.106 6.971,-9.62 13.353,-11.532 z"
     id="path51"
     inkscape:connector-curvature="0"
     style="fill-rule:evenodd" /><path
     clip-rule="evenodd"
     d="m 122.049,246.419 c -3.923,-0.215 -6.222,-1.409 -9.104,-1.214 1.939,-2.369 7.837,-0.831 9.104,1.214 z"
     id="path53"
     inkscape:connector-curvature="0"
     style="fill-rule:evenodd" /><path
     clip-rule="evenodd"
     d="m 104.448,248.24 c 0.59,3.432 -3.584,7.333 -7.283,8.497 1.997,-3.262 5.953,-4.567 7.283,-8.497 z"
     id="path55"
     inkscape:connector-curvature="0"
     style="fill-rule:evenodd" /><path
     clip-rule="evenodd"
     d="m 119.622,255.523 c 0.188,-0.823 1.52,-0.504 2.428,-0.606 -3.038,6.812 1.743,10.61 7.891,11.531 -2.337,3.574 -7.821,-1.198 -9.104,-4.248 -3.188,1.561 -5.066,7.346 -10.318,4.855 5.848,-0.629 10.311,-5.867 9.103,-11.532 z"
     id="path61"
     inkscape:connector-curvature="0"
     style="fill-rule:evenodd" /><path
     clip-rule="evenodd"
     d="m 85.026,255.523 c 0.98,-0.171 1.045,0.573 1.82,0.607 -0.458,2.575 -1.417,4.652 -1.214,7.89 1.652,3.531 6.545,0.092 9.104,2.428 -1.85,1.455 -8.755,1.62 -10.318,-1.214 -0.475,-2.7 0.809,-3.643 0.607,-6.069 -2.54,3.784 -6.641,12.308 -13.96,7.283 10.528,2.233 10.025,-6.565 13.961,-10.925 z"
     id="path63"
     inkscape:connector-curvature="0"
     style="fill-rule:evenodd" /><path
     clip-rule="evenodd"
     d="m 27.973,267.662 c 2.337,1.895 -2.687,6.499 -6.069,6.677 1.98,-2.269 4.813,-3.685 6.069,-6.677 z"
     id="path65"
     inkscape:connector-curvature="0"
     style="fill-rule:evenodd" /><path
     clip-rule="evenodd"
     d="m 79.563,269.483 c 0.607,0 1.214,0 1.821,0 -0.358,3.233 -2.111,7.794 -4.855,6.676 0.985,-2.346 4.489,-3.702 3.034,-6.676 z"
     id="path67"
     inkscape:connector-curvature="0"
     style="fill-rule:evenodd" /><path
     clip-rule="evenodd"
     d="m 104.448,272.518 c 3.272,1.068 -1.375,3.577 -0.606,6.069 0.142,6.286 10.471,5.096 9.104,10.926 -2.077,-3.992 -8.104,-4.035 -9.711,-8.498 -1.732,5.595 -10.735,9.402 -14.566,3.035 2.547,0.487 4.417,1.652 6.677,2.428 6.313,-1.374 6.256,-9.118 9.102,-13.96 z"
     id="path73"
     inkscape:connector-curvature="0"
     style="fill-rule:evenodd" /><path
     clip-rule="evenodd"
     d="m 59.534,273.125 c 0.607,0 1.214,0 1.821,0 -1.439,4.062 0.026,9.399 2.428,11.532 4.443,-0.194 8.456,0.04 9.711,3.034 -4.25,-1.271 -15.02,-1.122 -13.959,-9.711 -1.3,6.179 -5.894,13.477 -13.353,9.711 0.029,-2.511 3.643,0.413 6.07,-0.606 4.714,-2.366 5.539,-8.622 7.282,-13.96 z"
     id="path75"
     inkscape:connector-curvature="0"
     style="fill-rule:evenodd" /><path
     clip-rule="evenodd"
     d="m 26.152,278.587 c 2.445,0.674 -0.247,3.341 0.607,6.07 0.152,3.066 5.65,3.402 4.249,6.069 -3.155,-1.498 -5.931,-3.376 -5.462,-8.497 -3.14,4.547 -4.517,10.858 -12.746,10.317 7.272,-1.831 9.575,-8.631 13.352,-13.959 z"
     id="path83"
     inkscape:connector-curvature="0"
     style="fill-rule:evenodd" /><path
     clip-rule="evenodd"
     d="m 55.286,288.905 c 2.629,2.042 -1.85,10.069 -4.855,8.497 2.507,-1.943 4.143,-4.757 4.855,-8.497 z"
     id="path85"
     inkscape:connector-curvature="0"
     style="fill-rule:evenodd" /><path
     clip-rule="evenodd"
     d="m 132.974,291.94 c 2.599,2.257 3.985,5.726 6.069,8.497 -3.606,-1.249 -5.107,-4.603 -6.069,-8.497 z"
     id="path89"
     inkscape:connector-curvature="0"
     style="fill-rule:evenodd" /><path
     clip-rule="evenodd"
     d="m 21.904,292.547 c -1.76,2.99 -4.356,8.057 -7.891,7.283 3.166,-1.892 4.36,-5.756 7.891,-7.283 z"
     id="path91"
     inkscape:connector-curvature="0"
     style="fill-rule:evenodd" /><path
     clip-rule="evenodd"
     d="m 78.349,293.761 c 2.677,0.906 -0.656,4.562 1.214,6.677 2.744,3.527 11.21,1.334 11.532,7.283 -3.052,-4.231 -12.27,-2.297 -13.353,-8.497 -0.264,4.699 -7.924,11.817 -10.925,6.069 8.545,3.223 8.848,-6.889 11.532,-11.532 z"
     id="path97"
     inkscape:connector-curvature="0"
     style="fill-rule:evenodd" /><path
     clip-rule="evenodd"
     d="m 76.529,307.113 c 2.879,1.23 -1.271,6.968 -3.035,5.463 1.134,-1.698 2.704,-2.961 3.035,-5.463 z"
     id="path103"
     inkscape:connector-curvature="0"
     style="fill-rule:evenodd" /><path
     clip-rule="evenodd"
     d="m 58.32,309.542 c 1.354,3.05 -0.491,10.372 2.428,14.566 3.132,1.067 10.08,-1.486 10.925,4.248 -5.905,-3.199 -16.249,-1.96 -14.567,-12.745 -2.865,5.664 -7.558,15.867 -15.781,12.139 -0.406,-2.291 2.817,0.297 4.855,-0.607 7.335,-2.58 7.959,-11.87 12.14,-17.601 z"
     id="path107"
     inkscape:connector-curvature="0"
     style="fill-rule:evenodd" /><path
     clip-rule="evenodd"
     d="m 14.62,311.97 c 0.607,0 1.214,0 1.821,0 -5.499,10.173 6.373,11.79 9.711,16.994 -3.778,-3.303 -11.409,-2.754 -11.532,-9.711 -1.843,4.43 -4.562,13.074 -11.532,8.497 0.468,-2.471 2.974,0.691 4.249,0 5.673,-2.016 5.068,-10.309 7.283,-15.78 z"
     id="path111"
     inkscape:connector-curvature="0"
     style="fill-rule:evenodd" /><path
     clip-rule="evenodd"
     d="m 136.009,314.397 c 0.985,3.282 0.549,7.897 3.642,11.531 1.847,0.784 5.561,-0.301 5.463,2.428 -6.618,0.751 -7.659,-4.075 -9.712,-7.89 -1.21,4.72 -9.589,10.786 -12.745,6.069 10.306,1.811 10.173,-6.82 13.352,-12.138 z"
     id="path115"
     inkscape:connector-curvature="0"
     style="fill-rule:evenodd" /><path
     clip-rule="evenodd"
     d="m 136.009,327.75 c 0.961,4.166 3.364,9.782 9.104,10.925 -7.275,0.944 -10.191,-5.51 -9.104,-10.925 z"
     id="path117"
     inkscape:connector-curvature="0"
     style="fill-rule:evenodd" /><path
     clip-rule="evenodd"
     d="m 51.644,328.356 c 1.931,2.63 -1.954,9.163 -6.07,9.712 2.216,-3.045 5.255,-5.266 6.07,-9.712 z"
     id="path119"
     inkscape:connector-curvature="0"
     style="fill-rule:evenodd" /><path
     clip-rule="evenodd"
     d="m 11.585,329.57 c 2.016,3.087 -2.712,9.237 -5.462,11.532 0.012,-3.331 4.686,-6.969 5.462,-11.532 z"
     id="path121"
     inkscape:connector-curvature="0"
     style="fill-rule:evenodd" /><path
     clip-rule="evenodd"
     d="m 119.015,333.819 c 2.029,1.915 -3.357,9.927 2.428,11.532 4.435,-1.006 7.525,-0.208 10.317,1.82 -2.58,0.713 -7.213,-1.252 -12.139,-0.606 -0.384,-2.448 -2.601,-3.064 -2.428,-6.069 -3.22,2.647 -3.601,8.133 -9.711,7.89 5.764,-2.937 8.52,-8.879 11.533,-14.567 z"
     id="path127"
     inkscape:connector-curvature="0"
     style="fill-rule:evenodd" /><path
     clip-rule="evenodd"
     d="m 32.829,335.033 c 2.36,2.193 -0.834,4.546 0,7.283 1.424,4.677 8.307,3.257 9.104,8.497 -2.858,-2.807 -8.535,-2.794 -9.711,-7.283 -3.483,5.771 -12.967,1.629 -17.602,3.642 2.541,-4.915 7.626,-0.643 10.925,-1.214 5.439,-0.941 5.199,-5.485 7.284,-10.925 z"
     id="path129"
     inkscape:connector-curvature="0"
     style="fill-rule:evenodd" /><path
     clip-rule="evenodd"
     d="m 75.921,335.033 c 1.994,0.19 0.354,3.429 0,4.855 1.062,6.066 15.049,2.285 13.354,9.104 -2.086,-4.996 -11.792,-2.371 -13.96,-7.283 -1.335,6.068 -8.019,6.784 -15.174,5.462 8.567,-0.391 15.211,-1.786 15.78,-12.138 z"
     id="path131"
     inkscape:connector-curvature="0"
     style="fill-rule:evenodd" /><path
     clip-rule="evenodd"
     d="m 113.552,355.669 c 1.189,-2.25 1.114,-5.765 3.035,-7.283 -0.187,3.252 -0.722,6.156 -3.035,7.283 z"
     id="path135"
     inkscape:connector-curvature="0"
     style="fill-rule:evenodd" /><path
     clip-rule="evenodd"
     d="m 119.015,348.386 c 2.396,2.46 1.239,8.472 5.462,9.104 -4.227,2.105 -6.161,-6.253 -5.462,-9.104 z"
     id="path137"
     inkscape:connector-curvature="0"
     style="fill-rule:evenodd" /><path
     clip-rule="evenodd"
     d="m 113.552,380.554 c 1.748,3.31 2.452,7.664 6.069,9.104 -4.948,0.199 -6.618,-5.794 -6.069,-9.104 z"
     id="path151"
     inkscape:connector-curvature="0"
     style="fill-rule:evenodd" /><path
     clip-rule="evenodd"
     d="m 36.47,381.768 c 2.251,2.4 -2.777,10.274 -6.069,9.104 3.08,-1.976 4.887,-5.228 6.069,-9.104 z"
     id="path153"
     inkscape:connector-curvature="0"
     style="fill-rule:evenodd" /><path
     clip-rule="evenodd"
     d="m 109.911,382.375 c 1.301,1.341 0.429,5.658 -1.821,5.462 0.353,-2.074 2.03,-2.825 1.821,-5.462 z"
     id="path155"
     inkscape:connector-curvature="0"
     style="fill-rule:evenodd" /><path
     clip-rule="evenodd"
     d="m 58.32,384.803 c 0.607,0 1.214,0 1.821,0 -5.385,8.907 6.942,7.123 9.104,12.139 -3.963,-2.105 -10.427,-1.712 -11.532,-6.677 -2.275,4.754 -10.049,7.34 -13.96,2.429 7.875,3.2 13.457,-0.929 14.567,-7.891 z"
     id="path157"
     inkscape:connector-curvature="0"
     style="fill-rule:evenodd" /><path
     clip-rule="evenodd"
     d="m 97.165,356.883 c -2.677,3.654 -5.627,10.074 -12.746,7.284 2.346,-1.575 4.415,-0.527 6.677,-1.821 4.444,-2.543 3.598,-8.37 7.283,-11.532 0.929,1.993 -0.88,3.764 -0.606,5.463 0.907,5.652 7.298,3.43 9.711,7.891 -1.912,-1.538 -10.931,-1.204 -10.319,-7.285 z"
     id="path169"
     inkscape:connector-curvature="0"
     style="fill-rule:evenodd" /><path
     clip-rule="evenodd"
     d="m 113.552,367.809 c -1.777,5.253 -0.858,10.771 6.069,10.317 0.35,1.27 1.505,1.732 1.214,3.642 -2.467,-2.794 -7.996,-2.524 -9.104,-6.676 -1.018,2.016 -2.541,3.527 -3.034,6.069 -3.521,0.259 -6.966,2.471 -8.497,-1.214 1.959,-0.765 1.646,0.862 4.248,0.606 6.516,-0.638 4.978,-8.86 9.104,-12.744 z"
     id="path171"
     inkscape:connector-curvature="0"
     style="fill-rule:evenodd" /></g>
<path
   style="fill-rule:evenodd"
   d="m 108.95817,173.21124 -1.78125,1.78125 -52.000004,0 -1.90625,-0.625 c -1.581185,0.39412 -3.875563,-0.79994 -4.53125,0.0312 -17.207,9.784 -24.17025,30.86175 -32.15625,51.59375 -5.978,15.521 -12.6417497,31.35575 -13.3437497,47.34375 -0.552,12.576 3.1757501,29.58025 9.0937497,40.65625 5.223,9.774 14.62175,24.001 22.46875,30.375 9.377,7.615 22.89225,5.2185 36.40625,5.4375 10.776,0.175 22.95575,-0.818 34.593754,0 12.584,0.885 17.44325,-4.28925 24.28125,-11.53125 6.92,-7.33 14.40975,-18.57625 17.59375,-28.53125 9.51,-29.738 -1.29875,-61.10525 -9.09375,-86.15625 -5.92825,-19.056 -9.67197,-48.04593 -29.625,-50.375 z m -38.250004,2.5 c 1.764234,-0.0577 3.601375,0.0561 5.96875,0.53125 -3.687,3.596 -8.4665,6.09325 -10.3125,11.53125 -2.249,0.024 -3.538,-0.95475 -4.875,-1.84375 1.692,-3.497 -0.85375,-6.3965 -1.21875,-9.6875 4.730625,0.10437 7.497109,-0.43514 10.4375,-0.53125 z m 31.312504,0.15625 c 4.79975,0.0334 9.653,0.5975 11.0625,2.1875 -7.027,-0.351 -9.6595,3.69675 -14.562504,5.46875 -1.369,-3.284 -4.22325,-5.0915 -7.28125,-6.6875 1.2415,-0.5095 5.9815,-1.00212 10.781254,-0.96875 z m -44.156254,0.375 c 1.378,2.264 2.81425,4.45 2.40625,8.5 -5.586,0.685 -8.31875,4.1915 -12.71875,6.0625 -0.912,-1.766 -2.39575,-5.35125 -1.21875,-7.28125 -3.42,2.447 -5.924,5.80275 -8.5,9.09375 2.625,0.627 4.92325,-3.8225 6.65625,-6.0625 1.173,1.457 0.4975,4.77875 3.0625,4.84375 -1.047,3.201 -4.28175,4.21925 -5.46875,7.28125 -3.07,-1.931 -5.399,-5.24575 -9.125,-4.84375 2.069,-11.395 16.34125,-14.2825 24.90625,-10.9375 -3.076,-2.874 -11.8855,-4.90075 -14.5625,-1.21875 1.204,-4.291 7.5885,-4.8965 14.5625,-5.4375 z m 26.59375,0.25 c 4.393723,-0.10475 8.692125,1.59825 11.625,5.8125 1.268,1.823 1.298,5.004 0,7.875 -1.556,-3.503 -5.19925,-4.898 -10.90625,-4.25 -1.48,-1.555 -1.27075,-4.788 -1.21875,-7.875 -2.024,6.032 -7.35275,7.825 -13.34375,8.5 3.447,1.336 9.973,0.29875 12.125,-3.03125 0.545,1.277 0.9345,2.682 1.8125,3.625 2.919,0.224 4.79,0.163 8.5,0.625 2.724,3.512 -0.30875,6.4475 -0.59375,10.3125 -3.363,-1.896 -7.64425,-2.876 -7.28125,-8.5 -3.139,2.136 0.387,7.53425 3.625,7.28125 -2.443,3.425 -6.59925,5.1255 -10.90625,6.6875 -0.742,-2.293 -2.6525,-3.4375 -2.4375,-6.6875 4.468,-0.871 7.3635,-6.2925 6.6875,-10.3125 -2.143,3.725 -3.06925,8.68875 -7.90625,9.71875 -2.534,-2.118 -3.9755,-5.3725 -6.6875,-7.3125 1.989375,-7.10187 9.583379,-12.29417 16.90625,-12.46875 z m 31.062504,0.9375 c 2.556,0.276 2.78175,2.88525 4.84375,3.65625 -1.349,0.913 -3.99975,-2.05025 -4.84375,-3.65625 z m -0.71875,1.84375 c 0.4322,-0.0103 0.862,-0.008 1.3125,0 3.399,6.312 11.20025,8.245 12.15625,17 -7.059,-0.788 -8.95575,3.58475 -13.96875,4.84375 -2.531,-0.302 -3.14725,-2.51975 -3.65625,-4.84375 -2.479,1.19 0.7955,5.1645 2.4375,6.0625 -2.937,3.738 -4.975,8.38025 -8.5,11.53125 -1.68,-6.817 -5.328254,-11.6435 -10.906254,-14.5625 3.013781,-10.70469 7.726654,-19.71107 21.125004,-20.03125 z m -55.437504,8.59375 c 3.195923,-0.0586 6.446875,1.16 9.40625,4.15625 2.64,4.036 5.66825,7.685 7.90625,12.125 -2.529,4.147 -4.16725,9.187 -7.90625,12.125 -2.244,-2.883 -8.788,-4.33 -7.875,-12.125 -3.532,4.246 1.55475,10.1185 5.46875,10.9375 -5.089,0.98 -9.548,2.60175 -13.375,4.84375 -0.052,-3.388 -0.7175,-6.155 -1.8125,-8.5 3.81,-0.64 4.9255,-3.96725 6.0625,-7.28125 -3.681,0.77 -2.46425,6.4285 -6.65625,6.6875 -1.803,-3.861 -4.28225,-7.05275 -7.28125,-9.71875 2.347125,-6.8585 9.03147,-13.12106 16.0625,-13.25 z m -24.84375,8.03125 c 0.63976,-0.002 1.336719,0.11925 2.09375,0.375 3.202,1.082 13.5345,14.5385 14.5625,18.1875 2.311,8.202 -2.0845,10.87425 -6.0625,15.78125 -4.038,-1.83 -3.542,-8.18575 -8.5,-9.09375 -0.663,-1.766 -0.5595,-4.29275 -1.8125,-5.46875 -1.15,0.801 0.54975,3.85375 0.59375,5.46875 -7.55,-2.155 -10.811,3.77075 -17,4.84375 1.419,-3.64 3.23,-6.86825 4.25,-10.90625 7.752,2.519 9.12225,-6.16875 12.15625,-10.34375 -0.856,7.128 3.1455,9.396 10.3125,8.5 -1.543,-2.8 -4.33525,-1.1165 -7.28125,-1.8125 -2.194,-2.258 -1.96975,-6.95425 -1.84375,-11.53125 -5.329,3.002 -4.1,15.67275 -12.125,13.96875 3.383031,-6.72256 4.471905,-17.95176 10.65625,-17.96875 z m 91.031254,2.3125 c 0.73212,0.009 1.41875,0.1485 2.09375,0.46875 5.389,2.556 4.4,14.19875 8.5,21.84375 -3.55,-0.515 -4.131,1.92875 -7.875,1.21875 -1.593,-1.847 -2.32625,-4.54825 -3.65625,-6.65625 -1.63,3.266 2.44425,6.058 3.65625,8.5 -3.034,0.405 -3.70175,3.17175 -6.09375,4.21875 0.169,-3.261 -4.219,-4.0515 -4.25,-6.0625 -0.041,-2.625 5.27675,-4.335 5.46875,-8.5 -1.622,0.214 -3.92275,4.97225 -5.46875,7.28125 -2.132,-1.914 -5.2925,-2.7865 -6.0625,-6.0625 l -4.84375,0 c 0.179,-3.261 3.60025,-3.27325 3.03125,-7.28125 4.0775,-2.268 10.37513,-9.02902 15.5,-8.96875 z m -35.812504,1.65625 c 0.503505,-0.038 1.012438,-0.0224 1.5,0.0312 6.002,0.66 9.643254,8.0035 11.531254,14.5625 -3.285004,3.392 -6.857504,6.49875 -10.312504,9.71875 -3.522,-0.929 -5.708,-3.216 -4.875,-8.5 -5.623,5.025 3.39425,8.0105 3.65625,10.3125 0.26,2.273 -5.59975,5.84375 -4.84375,9.71875 -5.518,-5.811 -7.61775,-15.0835 -14.59375,-19.4375 1.341562,-5.45156 10.384927,-15.83608 17.9375,-16.40625 z m 17.562504,16.1875 c 0.69708,0.007 1.41938,0.0764 2.15625,0.21875 4.491,0.868 11.44525,8.051 11.53125,13.375 0.111,6.88 -7.01825,11.30625 -11.53125,15.15625 -1.753,-2.294 -2.3755,-5.7045 -2.4375,-9.6875 -3.082,3.762 0.57275,7.44225 1.21875,10.90625 -2.226,2.833 -3.0615,7.03775 -6.0625,9.09375 -0.961,-2.299 -2.263004,-7.8265 -4.875004,-10.3125 2.39,-2.869 4.998504,-5.4915 6.062504,-9.6875 -3.06,1.998 -3.28925,6.81 -7.281254,7.875 -0.993,-3.862 -5.114,-4.5925 -8.5,-6.0625 3.211875,-6.62812 9.2626,-20.98545 19.718754,-20.875 z m -42.062504,1.3125 c 0.753997,-0.004 1.509188,0.0261 2.3125,0.125 9.565,1.177 11.41925,11.2195 15.78125,18.8125 -8.888,-0.159 -18.27825,14.9895 -19.40625,-1.8125 -2.395,2.55 0.793,9.07375 4.25,9.71875 -2.687,4.394 -4.0695,10.0995 -10.9375,10.3125 -1.733,-8.585 -7.1835,-13.437 -13.9375,-17 4.729687,-8.87625 10.627551,-20.09104 21.9375,-20.15625 z m 67.875004,5 3.65625,0 c 0.659,3.314 2.94825,7.7715 2.40625,10.3125 -5.212,-0.251 -5.9355,-4.9765 -6.0625,-10.3125 z m -101.750004,1 c 5.708946,-0.13166 10.919969,2.69559 12.53125,9.90625 -2.618,5.474 -10.3285,5.86075 -14.5625,9.71875 -0.817,-1.409 -0.9965,-3.43475 -1.8125,-4.84375 -2.478,0.847 0.71175,3.8335 0.59375,6.0625 -1.328,3.325 -4.07675,5.239 -5.46875,8.5 -3.666,-1.23 -8.426,-2.529 -12.125,0 0.731,-6.756 4.97025,-15.2375 6.65625,-23.0625 3.713906,-3.72797 9.150194,-6.16508 14.1875,-6.28125 z m 100.531254,0.21875 c 1.128,6.703 -4.74775,10.24075 -9.09375,13.34375 3.457,0.211 8.21475,-3.51825 9.71875,-7.28125 1.817,2.229 3.71525,4.36475 7.28125,4.84375 3.596,7.128 4.65425,16.778 7.28125,24.875 -5.142,1.226 -8.72625,-10.29325 -12.15625,-15.15625 -0.332,-2.208 2.01425,-5.2245 -0.59375,-6.0625 -1.002,0.085 0.635,2.533 0,4.25 -4.67,-1.805 -8.81325,-4.14925 -15.78125,-3.65625 3.133,-6.376 5.84275,-13.14725 13.34375,-15.15625 z m -47.906254,15.4375 c 8.145,0.0631 15.76925,5.477 16.343754,17.3125 -4.734004,0.524 -6.946504,3.57375 -9.687504,6.09375 -4.199,-0.86 -4.3815,-5.77925 -7.3125,-7.90625 -0.157,2.725 2.58075,7.459 6.09375,8.5 -2.354,3.918 -4.63925,7.9325 -7.90625,10.9375 -1.848,-10.492 -7.403,-17.28625 -17,-20.03125 2.6555,-9.659 11.32375,-14.96937 19.46875,-14.90625 z m -41.65625,0.34375 c 0.695279,-0.0381 1.3965,-0.0263 2.15625,0 3.37,4.259 13.614,10.194 9.125,16.375 -2.828,-0.516 -7.42625,-4.23475 -11.53125,-5.46875 -1.075,-2.347 -0.569,-6.037 0,-8.5 -3.575,1.586 -1.72825,4.87925 -3.65625,7.28125 -3.278,4.086 -9.3015,2.424 -14.5625,4.875 4.57875,-6.42094 8.039561,-13.99024 18.46875,-14.5625 z m 80.343754,0.78125 c 1.75536,0.03 3.62969,0.36244 5.59375,1.03125 6.465,2.201 7.80825,9.86125 11.53125,15.15625 -2.517,1.933 -6.283,2.64 -8.5,4.875 -4.123,-0.935 -6.67,-3.4595 -8.5,-6.6875 -1.369,4.011 4.08125,6.44525 7.28125,7.90625 -1.289,3.161 -4.2925,4.59925 -6.0625,7.28125 -3.59,-1.265 -2.02375,-7.715 -6.09375,-8.5 0.842,-2.377 3.8645,-5.21525 2.4375,-7.90625 -1.478,1.354 -1.4995,4.1675 -2.4375,6.0625 -4.236,-1.429 -8.98275,-2.32 -12.71875,-4.25 3.803,-4.788 12.5145,1.7525 14.5625,-5.4375 3.443,4.649 14.383,1.80525 17,7.28125 0.807,-5.669 -9.8225,-5.1695 -15.1875,-6.6875 -0.648,-3.48 0.84975,-4.81725 1.21875,-7.28125 -4.724,0.577 -2.619,5.77325 -4.875,7.90625 -3.334,3.151 -6.89925,-0.3065 -11.53125,1.8125 3.07287,-7.25156 8.67471,-12.69264 16.28125,-12.5625 z m -83.031254,8.3125 c 2.414,4.148 6.9865,6.26125 10.9375,7.28125 -0.099,0.706 0.12075,1.08475 0.59375,1.21875 -2.964,7.666 -9.7745,12.38025 -10.3125,-1.21875 -1.667,3.704 -0.18175,9.4685 3.03125,10.3125 -3.004,2.667 -4.68825,9.8805 -7.28125,10.9375 -2.35,-3.112 -1.16025,-9.783 -3.65625,-12.75 2.489,-1.871 5.795,-5.79675 4.25,-9.71875 -2.293,2.162 -1.407,6.39675 -4.25,9.09375 -3.909,-1.958 -5.29675,-6.39975 -8.46875,-9.09375 6.059,-1.022 13.72325,-0.4155 15.15625,-6.0625 z m -25.09375,4.0625 c 9.154298,-0.25097 20.2825,13.46975 19.03125,23.84375 -4.769,0.694 -6.8345,4.0785 -10.3125,6.0625 -2.946,-0.493 -2.33625,-4.53725 -3.65625,-6.65625 -2.218,1.065 0.6855,5.71025 1.8125,7.28125 -5.564,3.338 -9.04775,8.73875 -13.3437497,13.34375 -2.27,-10.075 -6.4969999,-34.00525 0.625,-41.28125 1.7246247,-1.76175 3.7312197,-2.53583 5.8437497,-2.59375 z m 45.78125,2.90625 c 12.060713,-0.51015 18.485625,9.81213 19.96875,21.5625 -6.479,0.601 -10.02925,4.1085 -15.15625,6.0625 -3.539,-0.709 -3.731,-4.80125 -4.875,-7.90625 -1.645,3.682 1.287,8.031 4.25,9.125 -4.956,2.53 -3.81025,11.14125 -10.90625,11.53125 -2.286,-8.235 -6.0715,-14.97 -14.5625,-17 2.598,-10.147 10.10025,-15.40475 15.78125,-22.46875 1.95475,-0.54162 3.777041,-0.83337 5.5,-0.90625 z m 43.656254,1.53125 c 12.339,1.015 17.94925,8.729 19.40625,20.625 -6.365,1.93 -11.898,4.71325 -17,7.90625 -1.627,-2.824 -2.532,-6.36075 -3.625,-9.71875 -3.360004,3.015 3.679,8.7715 3.625,10.3125 -0.097,2.798 -4.716,6.22825 -7.875004,7.90625 -0.552,-3.696 -2.781,-5.721 -4.25,-8.5 1.914,-2.943 5.13875,-4.56975 4.84375,-9.71875 -1.904,2.547 -2.85775,6.035 -4.84375,8.5 -4.179,-1.89 -5.29525,-6.8535 -11.53125,-6.6875 4.175,-8.975 8.6915,-17.62725 19.437504,-20.03125 -2.280004,3.789 -3.699004,8.44975 -4.250004,13.96875 -2.518,2.328 -7.6505,2.5305 -10.9375,2.4375 2.947,3.172 8.53825,0.58425 11.53125,-1.21875 1.777004,-2.268 0.45525,-7.655 3.031254,-9.125 -2.139004,13.257 12.65725,6.928 16.40625,13.375 0.549,-6.851 -11.2535,-3.16925 -15.1875,-7.90625 -0.326,-4.782 -0.71025,-8.514 1.21875,-12.125 z m 37.34375,1.8125 c 0.29767,-0.014 0.57431,-0.008 0.875,0 10.613,5.432 7.14175,27.73525 6.09375,41.28125 -2.086,0.266 -3.421,-0.258 -4.875,-0.625 -1.339,-8.17 -4.67925,-14.31175 -10.90625,-17.59375 1.813,-2.235 4.6245,-3.4545 5.4375,-6.6875 -3.521,0.121 -3.1555,4.141 -6.0625,4.875 -3.125,-0.517 -4.89625,-2.39925 -7.28125,-3.65625 -0.20247,-6.46544 7.49091,-17.16096 16.71875,-17.59375 z M 33.176916,278.36749 c 8.591461,-0.28652 18.262969,9.81066 18.59375,18.03125 -3.667,1.796 -8.0285,2.8845 -10.3125,6.0625 -2.898,-0.137 -2.224,-3.8045 -3.625,-5.4375 -2.128,2.962 1.3295,5.508 1.8125,7.875 -1.379,0.442 -1.8255,1.82325 -2.4375,3.03125 -2.039,-2.209 -3.0465,-5.42425 -5.4375,-7.28125 0.776,-1.732 4.09825,-3.18275 2.40625,-5.46875 -1.341,0.885 -1.19825,3.26425 -3.03125,3.65625 -7.268,-5.217 -16.70675,-1.88875 -21.8437497,3.03125 0.081,-8.209 8.4964997,-13.97475 15.1874997,-18.21875 2.526,-1.603 4.7215,-4.42575 6.0625,-4.84375 0.853406,-0.26559 1.736228,-0.40786 2.625,-0.4375 z m 93.875004,1.03125 c 6.401,4.523 12.5495,9.30675 14.5625,18.21875 -8.365,3.572 -15.31125,8.56425 -20.03125,15.78125 -3.779,-8.968 -7.76275,-17.74325 -18.21875,-20.03125 3.156,-9.38 15.1425,-13.69675 23.6875,-13.96875 z m -46.843754,0.53125 c 8.251409,0.11169 15.885469,4.94938 16.5,15.875 -5.799,1.484 -7.835,6.757 -13.375,8.5 -1.343,-2.3 -2.73325,-4.531 -2.40625,-8.5 -3.314,2.683 0.47525,8.28175 2.40625,9.71875 -2.124,1.517 -2.38875,4.8755 -4.84375,6.0625 -2.762,-1.285 -2.40275,-5.7075 -5.46875,-6.6875 1.12,-3.047 5.14525,-6.04275 3.65625,-9.71875 -1.747,2.097 -2.09925,5.61925 -3.65625,7.90625 -3.815,-3.265 -7.0075,-7.13125 -13.9375,-7.28125 1.633062,-10.05656 11.773403,-16.00158 21.125,-15.875 z m 23.781254,14.65625 c 6.83,3.691 13.79075,7.25075 13.96875,17.59375 -2.933,-1.146 -6.70625,0.224 -7.90625,0 -0.448,1.67 -3.0395,5.0875 -6.0625,6.0625 -1.241,-0.984 0.0233,-4.4535 -1.21875,-5.4375 -2.866004,1.714 0.66575,5.729 1.21875,7.875 -3.019,1.229 -3.5805,4.9205 -6.687504,6.0625 -0.234,-1.992 -1.7855,-2.677 -2.4375,-4.25 0.88,-3.286 5.07725,-6.0795 3.65625,-9.6875 -2.215,1.832 -2.066,6.013 -4.25,7.875 -2.481,-5.004 -8.61975,-6.33175 -13.34375,-9.09375 5.592,-8.404 13.0405,-14.515 23.062504,-17 z m -44.906254,2.4375 c -3.003,5.588 -3.386,16.73075 -13.375,13.34375 2.999,4.192 11.6185,0.46925 10.9375,-4.84375 2.22,3.242 5.42675,5.48525 9.71875,6.65625 -1.19,-4.471 -6.88825,-2.85825 -7.90625,-7.28125 -0.576,-2.504 1.5185,-4.397 1.8125,-7.875 8.143,2.377 12.58425,8.45825 15.78125,15.78125 -4.801,1.065 -7.1075,4.61925 -10.3125,7.28125 -2.006,-0.624 -2.0565,-3.21975 -2.4375,-5.46875 -3.061,2.463 3.3585,7.78075 -1.8125,9.71875 -1.53,-1.909 -2.81375,-4.05975 -4.84375,-5.46875 -0.159,-1.777 1.37675,-1.87925 1.21875,-3.65625 -4.206,3.26 -9.75175,-4.71475 -18.21875,-1.21875 -4.141,-10.136 8.5325,-16.13775 19.4375,-16.96875 z m -38.25,1.0625 c 8.186132,-0.0424 15.561844,8.27497 17.59375,16.53125 -1.598,1.233 -3.26675,2.40125 -5.46875,3.03125 -1.301,-7.862 -14.31875,-7.49475 -9.09375,-18.21875 -4.815,2.873 -2.16675,13.238 -9.71875,13.375 -1.234,-3.354 -4.4032497,-6.17475 -3.03125,-10.34375 3.171937,-3.08362 6.515481,-4.35839 9.71875,-4.375 z m 119.531254,3.21875 c 2.15577,-0.12691 4.42472,0.21563 6.71875,1.15625 -0.3,5.569 -2.615,9.143 -4.25,13.375 -2.016,-0.817 -3.7415,-1.9275 -6.0625,-2.4375 -1.353,-3.867 1.20225,-6.65775 2.40625,-9.71875 -4.767,1.91 -4.896,8.45825 -8.5,11.53125 -2.406,-0.223 -5.81425,0.56925 -7.28125,-0.59375 2.79531,-6.41719 9.26959,-12.85925 16.96875,-13.3125 z m -118.937504,6.625 c 4.074,3.19 16.15475,10.23975 5.46875,13.96875 -1.157,-1.878 -0.9585,-5.10125 -1.8125,-7.28125 -2.236,1.685 -0.09325,6.647 1.21875,8.5 -0.466,1.962 -1.69425,3.159 -3.65625,3.625 -0.59,-2.04 -1.72225,-3.52275 -3.03125,-4.84375 0.026,-2.315 2.98475,-3.8535 1.21875,-6.0625 -1.011,0.81 -0.9345,2.682 -1.8125,3.625 -2.316,-0.719 -1.934,-4.12475 -4.25,-4.84375 2.399,-2.053 6.12725,-2.7635 6.65625,-6.6875 z m 112.906254,4.25 c 1.941,1.7 2.8625,4.435 6.6875,4.25 1.385,3.19 -1.7915,5.52025 -3.0625,7.90625 -2.626,0.4 -0.1895,-4.272 -1.8125,-4.875 -1.414,1.257 -0.426,5.2565 0.625,6.0625 -0.577,2.052 -2.0985,3.209 -3.0625,4.875 -3.13,-2.864 -1.92275,-6.6975 -0.59375,-10.3125 -2.418,-0.394 -0.46225,3.57725 -3.03125,3.03125 0.048,-3.084 -4.14625,-4.4835 -3.03125,-6.6875 4.525,0.682 5.86025,-1.828 7.28125,-4.25 z m -17.96875,1 c 1.85077,-0.0427 3.78431,0.40381 5.8125,1.4375 3.152,1.605 9.944,13.27075 9.125,18.21875 -0.867,5.235 -8.638,8.537 -12.75,12.125 -4.137,-6.787 -7.8465,-14.00975 -18.812504,-13.96875 2.461874,-8.4565 8.604984,-17.6273 16.625004,-17.8125 z m -35.750004,1.28125 c 2.843891,0.0329 5.84225,0.82775 8.8125,2.59375 3.05,4.436 6.001,8.9515 8.5,13.9375 -2.337,3.529 -6.23,5.526 -9.125,8.5 -3.641,-1.214 -5.32575,-4.37975 -4.84375,-9.71875 -2.958,2.898 -0.172,10.19275 3.625,10.34375 -0.967,2.876 -3.67775,3.97725 -4.84375,6.65625 -2.996,-1.455 -3.48275,-5.41 -5.46875,-7.875 0.539,-3.052 3.8505,-6.085 2.4375,-9.125 -1.933,1.507 -1.51825,5.3865 -3.03125,7.3125 -2.809,-1.641 -4.44625,-4.47875 -7.90625,-5.46875 6.002,-1.485 11.48125,-3.5015 11.53125,-10.9375 1.19,6.901 8.12675,8.0615 13.96875,10.3125 0.763,-3.308 -4.578,-3.64 -7.875,-3.625 -3.386,-2.154 -4.89525,-7.4775 -3.65625,-10.9375 -3.548,1.713 -4.04475,6.4755 -5.46875,10.3125 -3.643,3.578 -10.0095,2.37075 -14.5625,1.21875 2.0805,-6.96975 9.374578,-13.59877 17.90625,-13.5 z m -34.96875,0.625 c 3.965076,-0.0593 6.872875,1.21231 7.96875,5.59375 3.755,1.505 6.39725,4.12 7.28125,8.5 9.83,2.916 15.43425,10.0395 19.40625,18.8125 -6.586,0.187 -12.42775,-0.33 -17.59375,0 l 0,-5.46875 c -3.009,0.438 -1.06075,3.08575 -1.21875,5.46875 -2.53,-0.646 -2.6525,-0.157 -5.4375,0 -0.638,-2.662 2.0445,-1.995 1.8125,-4.25 -2.671,-0.243 -2.05325,2.83225 -3.65625,3.65625 -5.16,0.79 -12.09425,0.0817 -15.15625,-3.03125 4.132,-8.007 11.878,-12.38825 20.625,-15.78125 -4.761,-3.523 -17.7955,-1.3725 -14.5625,-10.9375 -2.672,0.16 -1.84725,3.81975 -3.03125,5.46875 -2.744,2.528 -6.3555,3.3745 -10.3125,1.8125 -1.801,0.223 -3.00925,1.0625 -3.65625,2.4375 3.186,-1.823 12.6505,2.291 14.5625,-4.25 1.98,4.089 10.18225,1.9665 12.15625,6.0625 -3.142,0.702 -5.67225,2.015 -7.28125,4.25 -1.865,-0.562 -1.0645,-3.78775 -2.4375,-4.84375 -1.647,1.492 0.64975,4.1515 0.59375,6.0625 -3.541,2.124 -5.26375,6.04 -9.09375,7.875 -2.64,-4.929 -11.28625,-8.03075 -11.53125,-13.34375 -0.313,-6.791 9.8605,-8.89475 14.5625,-13.34375 2.16875,-0.41031 4.197693,-0.72302 6,-0.75 z m 57.718754,17.75 c -1.704,6.187 -5.547004,10.21925 -12.750004,10.90625 3.55,0.909 10.107504,-0.419 10.937504,-4.25 2.299,2.06 6.43875,5.153 9.71875,4.25 -4.051,-2.676 -11.10825,-3.70125 -7.28125,-10.90625 6.155,2.95 11.42075,6.7545 13.34375,13.9375 -2.698,1.22 -11.965,2.98925 -12.75,-1.21875 -1.85,0.741 0.90025,2.31325 -0.59375,3.03125 -1.745,0.848 -3.09725,-1.654 -3.65625,0 -2.094004,-0.442 -0.404004,-1.82325 0,-3.03125 -2.760004,3.309 -9.774254,2.3755 -15.781254,2.4375 4.589,-6.741 8.6065,-14.03325 18.812504,-15.15625 z"
   id="path4338"
   inkscape:connector-curvature="0" /><g
   id="g4344"
   transform="matrix(1,0,0,0.59158583,3.1769163,39.999998)"><g
     id="g4375"
     transform="matrix(1.2963128,0,0,1.2963128,-22.135491,-67.614871)"><path
       inkscape:connector-curvature="0"
       style="fill:#000000;fill-opacity:1;fill-rule:nonzero;stroke:none"
       d="M 113.5625,0 C 108.9575,7.8029999 101.30775,12.23475 95.34375,17.59375 80.68075,30.76875 74.41425,53.164 68.03125,75.25 57.30025,62.513 44.101,52.244 26.75,46.125 33.209,58.156 42.794,68.36425 48,82.53125 c 5.071,13.801 10.01975,29.61475 9.09375,47.96875 -10.687,-11.568 -15.2115,-29.31475 -31.5625,-35.21875 13.828,16.463 21.57875,44.3245 22.46875,69.8125 -10.284,-7.232 -17.353,-23.759 -33.375,-21.25 2.469,4.539 7.0085,6.3965 10.3125,10.3125 7.016,8.318 11.4325,21.929 15.1875,34 L 52,228.1875 l 51.20447,0 c 0.64639,-0.33808 1.47466,-1.00762 1.65625,-1.16046 0.78968,-15.48372 8.4328,-38.24621 18.06963,-49.02024 2.126,-2.384 3.68655,-3.54274 4.92055,-6.60974 -5.03116,-4.15903 -14.8034,5.32674 -19.1634,6.44674 2.744,-22.35 11.134,-39.80125 21.25,-53.40625 1.794,-2.413 5.06275,-4.49625 4.84375,-7.90625 -10.232,2.112 -18.342,9.55775 -24.875,13.34375 1.507,-27.829 13.48975,-45.17525 21.84375,-66.15625 -8.075,8.919 -17.0905,16.9145 -27.3125,23.6875 -8.711,-31.702 5.45475,-62.1495 10.34375,-86.1875 C 114.65325,0.53775001 114.1025,0.269 113.5625,0 z m -2.4375,5.46875 c 0.696,0.214 1.52575,1.07275 0.59375,1.21875 -5.709,24.58 -17.466,55.4375 -8.5,81.9375 -4.336,5.579 -10.62325,12.42125 -15.15625,15.78125 -0.363,-3.6 1.05175,-5.43 0.59375,-9.125 -3.464,1.936 -0.15225,10.56725 -2.40625,12.15625 -3.131,-3.14 -2.92275,-9.649 -6.09375,-12.75 1.415,-4.121 2.8655,-11.2195 2.4375,-15.1875 -2.16,3.1 -1.7255,8.827 -2.4375,13.375 -2.643,-1.79 -2.0195,-6.149 -1.8125,-8.5 1.218,-13.824 9.9415,-27.731 14.5625,-38.25 C 84.17425,56.208 80.486,71.32725 77.125,86.78125 71.746,79.62325 80.84325,68.928 80.78125,63.125 c -3.443,5.054 -5.1365,11.8655 -6.6875,18.8125 C 73.74375,63.7835 84.05,51.03325 89.875,37.03125 81.98,48.96225 74.532,61.331 72.875,79.5 67.643,77.906 70.7365,70.374 71.6875,66.75 75.9215,50.62 83.972,30.984 94.125,20.625 c 5.489,-5.599 13.16,-9.01725 17,-15.15625 z m -81.34375,44.3125 c 18.42,6.06 33.8555,20.35925 44.3125,36.40625 -5.796,-4.928 -9.312,-12.12125 -16.375,-15.78125 8.804,7.924 18.26475,18.2495 21.84375,35.1875 0.716,3.384 2.72825,8.9245 -0.59375,11.5625 -1.097,-15.09 -6.59,-25.81875 -13.375,-35.21875 3.087,10.51 14.84,24.18425 12.75,37.03125 -1.6,9.834 -10.68025,15.92775 -11.53125,26.09375 -8.417,-6.122 -2.4845,-20.86125 -6.0625,-32.78125 -1.121,5.706 1.164,15.4635 0,23.0625 -3.013,-3.236 -1.1575,-10.807 -1.8125,-17 -2.864,-27.063 -14.77125,-52.1985 -29.15625,-68.5625 z m 95.90625,22.4375 c -2.778,10.047 -9.95975,20.49425 -13.34375,32.78125 -2.446,8.885 -3.315,18.45925 -4.25,27.90625 -7.49,7.683 -12.77225,17.585 -20.03125,25.5 0.409,-1.932 2.11875,-4.7185 1.21875,-6.0625 -2.283,8.035 -4.6785,15.97125 -10.9375,20.03125 -2.945,-7.372 -5.06675,-15.55175 -9.09375,-21.84375 10.952,-23.441 25.1025,-43.691 43.6875,-59.5 -18.679,12.681 -33.2965,34.66625 -43.6875,57.65625 -1.139,-6.714 2.73875,-13.64425 5.46875,-19.40625 C 83.23775,111.30425 97.75,96.902 111.125,83.75 c 5.621,-3.078 10.4705,-6.92125 14.5625,-11.53125 z M 76.25,91.625 c 3.387854,0.142361 6.408719,12.85484 7.5625,19.4375 -1.428,0.191 -0.3695,2.8865 -2.4375,2.4375 -0.366,-8.738 -2.21575,-15.99275 -5.46875,-21.84375 0.11,-0.02222 0.234464,-0.03584 0.34375,-0.03125 z m -44.90625,8.5 c 0.679574,0.0285 0.78975,0.59613 1.46875,0.625 11.87,16.229 28.23525,34.3995 37.65625,56.4375 2.268,5.307 7.03125,12.851 7.28125,17 0.333,5.543 -4.73975,10.78825 -5.46875,16.40625 -1.699,-6.798 -1.36675,-15.63525 -4.84375,-20.65625 0.001,7.703 5.80425,20.3405 3.03125,27.3125 -5.131,-4.984 -7.46125,-12.7665 -12.15625,-18.1875 1.993,-17.654 -3.03375,-35.0685 -9.71875,-48.5625 3.97,11.883 9.70175,30.264 9.71875,46.125 -3.161,-0.184 -5.295,-6.366 -8.5,-8.5 C 48.4635,140.543 42.755,117.33425 31,100.15625 c 0.1225,-0.0214 0.246668,-0.0353 0.34375,-0.0312 z m 99.5625,18.78125 c 0.71411,-0.006 0.78425,0.63375 0.84375,1.28125 -9.534,12.685 -19.1415,26.60725 -23.0625,44.90625 -0.96,4.481 0.27225,9.8915 -1.21875,14.5625 -1.499,4.695 -8.862,12.539 -12.125,17 -4.537,6.203 -8.86125,11.562 -12.15625,17 0.161,-20.476 8.891,-37.66875 17.625,-51.59375 -3.207,1.553 -4.7995,5.63775 -6.6875,9.09375 C 87.311,183.63125 82.36325,200.477 80.15625,218.5 69.86825,204.593 78.607,184.788 85.625,171.75 c -4.633,2.758 -5.53825,8.75975 -7.28125,13.96875 -1.77,5.295 -3.951,10.881 -4.25,17 -5.336,-5.426 0.3945,-13.3355 2.4375,-18.8125 2.48,-6.645 5.39275,-12.02675 9.09375,-17.59375 12.41,-18.662 23.57525,-38.01375 44.90625,-47.34375 0.129,-0.0279 0.27298,-0.0617 0.375,-0.0625 z m -111.5,26 c 1.281103,-0.0296 2.878125,0.44125 3.71875,0.75 8.902,3.269 19.5935,16.099 27.3125,25.5 3.789,4.615 7.61525,9.8035 10.90625,15.1875 6.172,10.096 10.7335,15.9965 15.1875,27.3125 1.179,2.997 4.226,8.53225 0,10.90625 -3.548,-12.03 -7.59025,-23.5505 -15.78125,-30.9375 6.293,9.892 12.32325,20.023 15.15625,33.375 -7.571,0.56 -9.74,0.26675 -20.625,0.59375 -2.111,-13.266 -4.90075,-28.387 -9.09375,-37.625 1.121,11.221 7.17225,22.77425 7.28125,37.03125 -10.519,-28.528 -13.6615,-64.44775 -35.8125,-81.34375 0.3345,-0.55087 0.981338,-0.73225 1.75,-0.75 z m 106.28125,26.875 c -10.272,11.149 -17.538,28.315 -21.25,46.125 -0.616,2.952 0.89375,7.6575 -2.40625,9.6875 -2.906,-0.143 0.466,-2.136 0,-3.625 -3.161,-0.53 -0.471,4.774 -4.25,3.625 -0.115,-4.162 2.55825,-5.52075 3.03125,-9.09375 -4.056,1.204 -2.0015,8.51975 -6.6875,9.09375 1.417,-11.189 10.8825,-21.438 15.1875,-33.375 -5.66,8.705 -12.869,21.117 -17,33.375 -3.049,-0.533 -4.08025,0.158 -7.90625,0 3.008,-12.774 10.04225,-21.5205 16.40625,-30.9375 -4.164,2.686 -7.1665,8.6265 -10.3125,13.9375 -3.12,5.265 -5.89225,11.237 -7.90625,17 -1.359,-1.617 -3.042,0.87125 -4.25,-0.59375 2.927,-7.796 6.09425,-15.37025 12.15625,-20.03125 9.931,-13.536 15.8445,-31.0625 35.1875,-35.1875 z"
       transform="translate(0,-6.484517e-6)"
       id="path4336"
       sodipodi:nodetypes="ccccccccccccccccccccccccccccccccccccccccccccccccccccccccccccccccccccccccccccccccccccccccccccccccccccccscccccccccccscccccccccccccccc" /><g
       id="g4267"><path
         id="path5"
         transform="matrix(1,0,0,1.6903718,0,-157.53422)"
         d="m 111.125,96.4375 c -3.84,3.63115 -11.511,5.65646 -17,8.96875 -10.153,6.12824 -18.2045,17.73897 -22.4375,27.28125 -0.951,2.14391 -4.0435,6.58826 1.1875,7.53125 1.657,-10.74852 9.105,-18.06738 17,-25.125 -5.825,8.28338 -16.13125,15.82285 -15.78125,26.5625 1.551,-4.10916 3.2455,-8.13513 6.6875,-11.125 0.061,3.43297 -9.03525,9.76543 -3.65625,14 3.361,-9.14296 7.04925,-18.09754 15.78125,-24.0625 -4.621,6.22289 -13.3435,14.44692 -14.5625,22.625 -0.207,1.39082 -0.8315,3.97231 1.8125,5.03125 0.712,-2.69053 0.2775,-6.07233 2.4375,-7.90625 0.427,2.34682 -1.0225,6.56148 -2.4375,9 3.171,1.83392 2.96175,5.67367 6.09375,7.53125 2.254,-0.94003 -1.05775,-6.04219 2.40625,-7.1875 0.458,2.18591 -0.95575,3.27595 -0.59375,5.40625 4.533,-1.98832 10.82025,-6.04329 15.15625,-9.34375 -8.966,-15.67702 2.791,-33.92757 8.5,-48.46875 0.932,-0.08637 0.10225,-0.592151 -0.59375,-0.71875 z M 29.78125,122.625 c 14.385,9.68071 26.29125,24.58366 29.15625,40.59375 0.655,3.66369 -1.2005,8.11747 1.8125,10.03125 1.164,-4.49546 -1.121,-10.24941 0,-13.625 3.578,7.05229 -2.3545,15.75331 6.0625,19.375 0.851,-6.01406 9.93125,-9.61985 11.53125,-15.4375 2.089,-7.6001 -9.664,-15.68809 -12.75,-21.90625 6.785,5.56091 12.278,11.91731 13.375,20.84375 3.322,-1.5606 1.30975,-4.84182 0.59375,-6.84375 -3.579,-10.02028 -13.04075,-16.12477 -21.84375,-20.8125 7.063,2.1652 10.58,6.42842 16.375,9.34375 -10.458,-9.49259 -25.8925,-17.97749 -44.3125,-21.5625 z m 95.90625,13.3125 c -4.091,2.72662 -8.9405,4.99101 -14.5625,6.8125 -13.375,7.78054 -27.88625,16.30256 -36.40625,26.9375 -2.73,3.40813 -6.60775,7.49684 -5.46875,11.46875 10.391,-13.60115 25.0085,-26.59244 43.6875,-34.09375 -18.585,9.35179 -32.7355,21.31955 -43.6875,35.1875 4.027,3.72167 6.14875,8.54449 9.09375,12.90625 6.259,-2.40125 8.6545,-7.08977 10.9375,-11.84375 0.9,0.7945 -0.80975,2.45081 -1.21875,3.59375 7.258,-4.6824 12.54125,-10.51735 20.03125,-15.0625 0.935,-5.58871 1.804,-11.27501 4.25,-16.53125 3.384,-7.26881 10.56675,-13.43134 13.34375,-19.375 z m -40.65625,7.875 c 0.706,-0.0586 1.08475,0.0952 1.21875,0.375 -0.499,1.22399 -0.87825,5.3921 -3.03125,6.8125 -0.113,-2.8195 1.3455,-4.71053 1.8125,-7.1875 z M 31,152.4375 c 11.754,10.16167 17.4625,23.90104 18.8125,40.21875 3.205,1.26244 5.339,4.9224 8.5,5.03125 -0.017,-9.38314 -5.7175,-20.25144 -9.6875,-27.28125 6.685,7.98227 11.6805,18.27489 9.6875,28.71875 4.695,3.2064 7.02625,7.80094 12.15625,10.75 2.773,-4.12394 -3.03125,-11.59926 -3.03125,-16.15625 3.476,2.97035 3.14475,8.19715 4.84375,12.21875 0.729,-3.32353 5.80175,-6.40834 5.46875,-9.6875 -0.25,-2.45508 -5.01325,-6.92295 -7.28125,-10.0625 -9.421,-13.03737 -25.754,-23.77415 -37.625,-33.375 C 32.06775,152.793 31.98,152.33634 31,152.4375 z m 70.40625,3.21875 c 1.26,0.20114 1.305,0.57611 0.625,1.09375 -11.59,6.30867 -18.80975,15.2012 -26.71875,23.6875 -0.73,-1.48902 2.107,-4.07579 4.25,-6.46875 5.636,-6.29388 14.18475,-13.10536 21.84375,-18.3125 z m 29.125,7.90625 c -21.332,5.5189 -32.49725,16.95923 -44.90625,28 -3.702,3.29336 -6.61475,6.50641 -9.09375,10.4375 -2.043,3.23952 -7.7735,7.91446 -2.4375,11.125 0.299,-3.62051 2.479,-6.93064 4.25,-10.0625 1.743,-3.08157 2.64825,-6.61841 7.28125,-8.25 -7.018,7.7131 -15.75675,19.42907 -5.46875,27.65625 2.207,-10.66215 7.15475,-20.65122 13.96875,-28.03125 1.888,-2.04452 3.4805,-4.45627 6.6875,-5.375 -8.735,8.23724 -17.43375,18.41735 -17.59375,30.53125 3.295,-3.21764 7.588,-6.39289 12.125,-10.0625 3.263,-2.63906 10.626,-7.285 12.125,-10.0625 1.491,-2.7633 0.25875,-5.9741 1.21875,-8.625 3.92,-10.82543 13.5285,-19.05823 23.0625,-26.5625 -0.068,-0.43777 -0.18675,-0.85067 -1.21875,-0.71875 z M 90.5,168.9375 c 0.470625,0.0808 0.54275,0.42167 0.59375,0.75 -5.019,3.81809 -9.527,9.10822 -12.125,14.34375 -0.821,1.65526 -0.0465,3.9729 -3.0625,5.03125 2.599,-7.91838 7.83975,-14.26426 13.96875,-20.09375 0.258,-0.033 0.468125,-0.0582 0.625,-0.0312 z m -1.84375,8.28125 c 0.706,-0.0586 1.08475,0.0639 1.21875,0.34375 -3.109,3.90624 -4.79725,8.63612 -6.65625,13.28125 -1.432,-4.06715 3.3785,-9.36972 5.4375,-13.625 z m -69.25,1.6875 c -0.768662,0.0105 -1.4155,0.14286 -1.75,0.46875 22.151,9.99603 25.2925,31.21699 35.8125,48.09375 -0.109,-8.43365 -6.16025,-15.23622 -7.28125,-21.875 4.192,5.46507 6.98275,14.40202 9.09375,22.25 10.885,-0.19345 13.054,-0.0431 20.625,-0.375 C 73.07325,219.5699 67.043,213.60197 60.75,207.75 c 8.191,4.37004 12.23325,11.16447 15.78125,18.28125 4.226,-1.40324 1.179,-4.66333 0,-6.4375 -4.454,-6.69379 -9.0165,-10.18301 -15.1875,-16.15625 -3.291,-3.1851 -7.11725,-6.26983 -10.90625,-9 -7.718,-5.56209 -18.4105,-13.12861 -27.3125,-15.0625 -0.840625,-0.18265 -2.437647,-0.48625 -3.71875,-0.46875 z m 40.125,8.71875 c 2.917,3.30164 2.83525,8.39649 3.65625,12.9375 -2.635,-3.25076 -2.71125,-9.87545 -3.65625,-12.9375 z m 66.15625,7.1875 c -19.343,2.44088 -25.2565,12.80539 -35.1875,20.8125 -6.062,2.75738 -9.22925,7.23175 -12.15625,11.84375 1.208,0.86608 2.891,-0.58159 4.25,0.375 2.014,-3.40931 4.78725,-6.9478 7.90625,-10.0625 3.145,-3.14191 6.1485,-6.661 10.3125,-8.25 -6.365,5.57096 -13.39825,10.75617 -16.40625,18.3125 3.827,0.0935 4.85725,-0.31532 7.90625,0 4.131,-7.25107 11.34,-14.60025 17,-19.75 -4.305,7.06117 -13.7705,13.13075 -15.1875,19.75 4.686,-0.33957 2.6315,-4.66273 6.6875,-5.375 -0.472,2.11314 -3.14625,2.91282 -3.03125,5.375 3.779,0.67973 1.089,-2.46979 4.25,-2.15625 0.466,0.88146 -2.906,2.07165 0,2.15625 3.3,-1.20092 1.79125,-4.00305 2.40625,-5.75 3.712,-10.53614 10.978,-20.68566 21.25,-27.28125 z m -23.65625,1.4375 c 1.151,1.17311 -2.00025,3.12279 -3.65625,5.03125 -1.579,1.81972 -2.54575,4.20839 -4.84375,5.375 1.44,-4.29432 5.029,-7.31344 8.5,-10.40625 z m -56.6875,0.4375 c 1.698699,0.0585 4.348688,1.83186 5.09375,2.4375 7.369,5.99336 14.424,15.42895 20.625,22.625 -9.281,-8.03433 -15.1595,-18.07622 -26.6875,-24.78125 0.257625,-0.20232 0.576742,-0.29475 0.96875,-0.28125 z m 47.5625,3.5 c 0.705,-0.0586 1.08375,0.0952 1.21875,0.375 -4.102,4.15589 -4.95575,10.20916 -9.09375,14.34375 1.939,-5.3154 4.76,-10.09846 7.875,-14.71875 z m 7.90625,11.84375 c 2.141,2.27228 -4.42475,5.51145 -5.46875,8.28125 -0.632,-2.77158 4.42775,-5.30321 5.46875,-8.28125 z m -45.53125,8.28125 c 3.435,0.96014 3.02925,4.19118 3.65625,6.8125 -2.123,-1.7363 -2.10625,-4.73722 -3.65625,-6.8125 z"
         style="fill:url(#linearGradient4393);fill-opacity:1;fill-rule:evenodd"
         inkscape:connector-curvature="0" /><path
         clip-rule="evenodd"
         d="m 85.026,85.579 c 0.706,-0.099 1.08,0.134 1.214,0.607 -0.499,2.069 -0.882,9.131 -3.035,11.532 -0.113,-4.766 1.354,-7.952 1.821,-12.139 z"
         id="path11"
         inkscape:connector-curvature="0"
         style="fill-rule:evenodd" /><path
         clip-rule="evenodd"
         d="m 101.414,105.608 c 1.261,0.34 1.286,0.946 0.606,1.821 -11.59,10.665 -18.796,25.713 -26.705,40.058 -0.729,-2.517 2.105,-6.879 4.248,-10.925 5.636,-10.639 14.192,-22.152 21.851,-30.954 z"
         id="path15"
         inkscape:connector-curvature="0"
         style="fill-rule:evenodd" /><path
         clip-rule="evenodd"
         d="m 89.881,128.065 c 1.032,-0.223 1.146,0.474 1.214,1.214 -5.019,6.454 -9.541,15.428 -12.139,24.278 -0.821,2.797 -0.02,6.708 -3.035,8.498 2.599,-13.386 7.831,-24.137 13.96,-33.99 z"
         id="path19"
         inkscape:connector-curvature="0"
         style="fill-rule:evenodd" /><path
         clip-rule="evenodd"
         d="m 88.667,142.025 c 0.706,-0.099 1.08,0.134 1.214,0.607 -3.108,6.603 -4.817,14.605 -6.677,22.457 -1.431,-6.875 3.405,-15.871 5.463,-23.064 z"
         id="path21"
         inkscape:connector-curvature="0"
         style="fill-rule:evenodd" /><path
         clip-rule="evenodd"
         d="m 59.534,159.626 c 2.917,5.581 2.82,14.174 3.642,21.85 -2.635,-5.495 -2.697,-16.674 -3.642,-21.85 z"
         id="path25"
         inkscape:connector-curvature="0"
         style="fill-rule:evenodd" /><path
         clip-rule="evenodd"
         d="M 71.066,217.286 C 61.785,203.705 55.888,186.741 44.36,175.407 c 1.374,-1.824 5.153,2.382 6.07,3.642 7.369,10.13 14.435,26.072 20.636,38.237 z"
         id="path29"
         inkscape:connector-curvature="0"
         style="fill-rule:evenodd" /><path
         clip-rule="evenodd"
         d="m 102.02,174.193 c 1.151,1.983 -1.985,5.271 -3.642,8.497 -1.579,3.076 -2.558,7.133 -4.855,9.104 1.44,-7.259 5.026,-12.373 8.497,-17.601 z"
         id="path31"
         inkscape:connector-curvature="0"
         style="fill-rule:evenodd" /><path
         clip-rule="evenodd"
         d="m 92.917,180.869 c 0.705,-0.099 1.079,0.134 1.214,0.607 -4.103,7.025 -4.967,17.289 -9.104,24.278 1.938,-8.985 4.774,-17.075 7.89,-24.885 z"
         id="path33"
         inkscape:connector-curvature="0"
         style="fill-rule:evenodd" /><path
         clip-rule="evenodd"
         d="m 100.806,200.898 c 2.141,3.841 -4.418,9.278 -5.462,13.96 -0.632,-4.685 4.421,-8.926 5.462,-13.96 z"
         id="path35"
         inkscape:connector-curvature="0"
         style="fill-rule:evenodd" /><path
         clip-rule="evenodd"
         d="m 55.286,214.858 c 3.435,1.623 3.015,7.101 3.642,11.531 -2.124,-2.934 -2.093,-8.022 -3.642,-11.531 z"
         id="path37"
         inkscape:connector-curvature="0"
         style="fill-rule:evenodd" /><path
         clip-rule="evenodd"
         d="m 81.384,113.499 c -0.366,-8.738 -2.21,-15.999 -5.463,-21.85 3.52,-0.711 6.699,12.627 7.891,19.422 -1.428,0.191 -0.36,2.877 -2.428,2.428 z"
         id="path161"
         inkscape:connector-curvature="0"
         style="fill:#78a22f;fill-rule:evenodd" /></g></g></g></svg>